<?xml version="1.0" encoding="UTF-8"?>
<svg xmlns="http://www.w3.org/2000/svg" xmlns:xlink="http://www.w3.org/1999/xlink" viewBox="0 0 734.4 734.4">
  <defs>
    <style>
      .st0 {
        fill: url(#linear-gradient2);
      }

      .st1 {
        fill: url(#linear-gradient1);
      }

      .st2 {
        fill: url(#linear-gradient3);
      }

      .st3 {
        fill: url(#linear-gradient5);
      }

      .st4 {
        fill: url(#linear-gradient4);
      }

      .st5 {
        fill: url(#linear-gradient);
      }

      .st6 {
        fill: #6bd14d;
      }
    </style>
    <linearGradient id="linear-gradient" x1="305.1" y1="340.9" x2="301.4" y2="344.3" gradientUnits="userSpaceOnUse">
      <stop offset="0" stop-color="#6bd14d"/>
      <stop offset="0" stop-color="#72d355"/>
      <stop offset=".2" stop-color="#80d764"/>
      <stop offset=".3" stop-color="#89da6d"/>
      <stop offset=".5" stop-color="#8cdb70"/>
      <stop offset=".6" stop-color="#8cdb70"/>
      <stop offset="1" stop-color="#6bd14d"/>
    </linearGradient>
    <linearGradient id="linear-gradient1" x1="338.9" y1="387.1" x2="342.8" y2="390.8" gradientUnits="userSpaceOnUse">
      <stop offset="0" stop-color="#6bd14d"/>
      <stop offset=".3" stop-color="#6bd14d"/>
      <stop offset=".7" stop-color="#a3e289"/>
      <stop offset=".8" stop-color="#9fe085"/>
      <stop offset=".8" stop-color="#95dd7a"/>
      <stop offset=".9" stop-color="#84d867"/>
      <stop offset="1" stop-color="#6cd14e"/>
      <stop offset="1" stop-color="#6bd14d"/>
    </linearGradient>
    <linearGradient id="linear-gradient2" x1="301.6" y1="389.3" x2="305.4" y2="392.8" gradientUnits="userSpaceOnUse">
      <stop offset="0" stop-color="#6bd14d"/>
      <stop offset="0" stop-color="#6fd252"/>
      <stop offset="0" stop-color="#85d969"/>
      <stop offset=".1" stop-color="#95de7b"/>
      <stop offset=".2" stop-color="#a1e288"/>
      <stop offset=".2" stop-color="#a8e48f"/>
      <stop offset=".3" stop-color="#aae592"/>
      <stop offset=".7" stop-color="#8edc72"/>
      <stop offset=".8" stop-color="#8bdb6f"/>
      <stop offset=".8" stop-color="#83d866"/>
      <stop offset=".9" stop-color="#76d458"/>
      <stop offset=".9" stop-color="#6bd14d"/>
    </linearGradient>
    <linearGradient id="linear-gradient3" x1="298.6" y1="322.3" x2="298.6" y2="318.4" gradientUnits="userSpaceOnUse">
      <stop offset="0" stop-color="#6bd14d"/>
      <stop offset=".3" stop-color="#8cdb70"/>
      <stop offset=".7" stop-color="#a8e48f"/>
      <stop offset=".8" stop-color="#a6e38d"/>
      <stop offset=".9" stop-color="#9fe186"/>
      <stop offset=".9" stop-color="#95de7a"/>
      <stop offset="1" stop-color="#85d969"/>
      <stop offset="1" stop-color="#71d253"/>
      <stop offset="1" stop-color="#6bd14d"/>
    </linearGradient>
    <linearGradient id="linear-gradient4" x1="338.9" y1="346" x2="342.7" y2="342.5" gradientUnits="userSpaceOnUse">
      <stop offset="0" stop-color="#6bd14d"/>
      <stop offset=".3" stop-color="#6bd14d"/>
      <stop offset=".7" stop-color="#a3e289"/>
      <stop offset=".8" stop-color="#9fe085"/>
      <stop offset=".8" stop-color="#95dd7a"/>
      <stop offset=".9" stop-color="#84d867"/>
      <stop offset="1" stop-color="#6cd14e"/>
      <stop offset="1" stop-color="#6bd14d"/>
    </linearGradient>
    <linearGradient id="linear-gradient5" x1="298.7" y1="415.3" x2="298.7" y2="411.2" gradientUnits="userSpaceOnUse">
      <stop offset="0" stop-color="#6bd14d"/>
      <stop offset=".1" stop-color="#75d458"/>
      <stop offset=".3" stop-color="#8fdc75"/>
      <stop offset=".4" stop-color="#aae592"/>
      <stop offset=".7" stop-color="#92dd76"/>
      <stop offset=".9" stop-color="#90dc74"/>
      <stop offset=".9" stop-color="#89da6d"/>
      <stop offset="1" stop-color="#7ed761"/>
      <stop offset="1" stop-color="#6ed250"/>
      <stop offset="1" stop-color="#6bd14d"/>
    </linearGradient>
  </defs>
  <g transform="translate(0, 306)">
    <g>
      <path d="M73.9,69.3c-.6-1.7-1.3-3.4-2.3-5.2-1-1.8-1.9-3.3-2.8-4.5l-3.1-4.1c-2.2-2.9-3.9-5-4.9-6.5-1-1.4-1.8-2.8-2.3-4-.5-1.2-.8-2.3-.8-3.2,0-.9,0-1.8.4-2.8.7-2,2.3-3.8,4.8-5.1,2.6-1.4,5.5-2.1,8.7-2.1s4.8.3,7.8,1c2.9.7,6,1.9,9.2,3.7,1.6-6.8,2.7-11.6,3.5-14.4.7-2.7,1.5-5.7,2.5-9-7.6-1.9-14.9-2.8-21.8-2.8s-7.1.3-10.6,1c-3.5.6-7.1,1.8-10.5,3.6-3.5,1.8-6.5,3.8-9.1,6.3-2.6,2.4-4.7,5-6.5,7.8-1.8,2.8-3.1,5.6-4.1,8.5-.8,2.4-1.2,4.7-1.4,6.9-.1,2.2,0,4.3.6,6.4.5,2.1,1.5,4.3,2.9,6.8.7,1.2,2,3.1,3.8,5.8l7.9,11.7c.7,1.1,1.2,2.1,1.5,3,.3.9.4,1.8.4,2.5s-.2,1.5-.4,2.3c-.8,2.4-2.4,4.2-4.9,5.4-2.5,1.2-5.6,1.8-9.1,1.8s-5.7-.5-9-1.4c-3.3-.9-6.9-2.6-10.7-5-1.3,6.1-3.3,14.2-6,24.3,9.4,2.2,17.5,3.3,24.2,3.3s8.6-.5,12.8-1.5c4.2-1,8.3-2.7,12.4-5.2,4.1-2.5,7.6-5.7,10.6-9.6,3-3.9,5.2-7.9,6.6-12.2.5-1.7.9-3.2,1.1-4.7.2-1.4.2-2.9,0-4.3-.1-1.4-.5-3-1-4.7Z"/>
      <path d="M157.1,44.3c-1.3-2.8-3.8-4.7-7.3-6-3.6-1.2-7.7-1.9-12.5-1.9-8.4,0-18.8,1.5-31.4,4.4-1.7,3.7-2.9,6.5-3.6,8.2-.8,1.7-2.3,4.9-4.5,9.6,11.7-4.5,21-6.8,27.9-6.8s4.2.5,5.2,1.4c1,1,1.2,2.3.6,4.1-.2.7-.5,1.3-.9,1.9-.4.6-.9,1.1-1.5,1.7-.6.5-1.4,1-2.3,1.4-.9.4-2.3.9-4.2,1.4-1.9.5-4,1-6.3,1.5-5.4,1.1-10,2.3-13.7,3.6-3.7,1.3-6.7,2.6-9.1,4-2.4,1.4-4.6,3.1-6.6,5.1-2.1,2-3.8,4.1-5.1,6.2-1.3,2.1-2.4,4.2-3.1,6.4-1.2,3.6-1.4,7.2-.8,10.8.6,3.6,2.4,6.2,5.2,7.8,2.8,1.6,6.7,2.4,11.7,2.4s6.5-.3,10.2-1c3.8-6.9,6.9-12.2,9.3-15.7-1.9.7-3.4,1.1-4.4,1.2-1,.2-2,.2-2.8.2-2.4,0-3.9-.6-4.7-1.7-.7-1.1-.8-2.5-.3-4.1.3-1,.8-2,1.5-2.8.7-.8,1.6-1.7,2.7-2.4,1.2-.8,2.4-1.4,3.8-2,1.4-.5,3.3-1.1,5.7-1.9,2.4-.7,4.1-1.3,5.1-1.7,1-.4,2.4-1,4.2-1.8-5.9,16-9.9,26.6-12.1,31.8,4.3,0,8.4-.1,12.2-.1s7.8,0,11.8.1c5.1-14.8,9.4-26.8,13-36,3.6-9.1,5.8-15,6.6-17.6,1.7-5.1,1.8-9.1.5-11.8Z"/>
      <path d="M216,39.3h-13.8l.6-2.1c1-3.1,2.3-5.2,3.9-6.4,1.6-1.2,3.5-1.7,5.6-1.7,3.2,0,6.5.8,9.9,2.5,1.2-4.9,2.9-11,5.1-18.4-3.4-1.2-6.4-1.9-9-2.3-2.6-.3-5.1-.5-7.4-.5s-5,.2-7.5.7c-2.5.5-4.9,1.4-7.2,2.7-2.3,1.3-4.2,2.8-5.8,4.5-1.6,1.7-2.9,3.7-4.1,6.2-1.2,2.4-2.4,5.7-3.8,10-.4,1.3-.9,2.9-1.5,4.8h-8.5c-.7,2.1-1.9,5.5-3.7,10.1-1.7,4.7-2.9,7.7-3.5,9.2h7.3c-9.2,25.1-15.6,42.1-19.2,51,4.6,0,8.6-.1,12.1-.1s7.5,0,12.2.1l18.5-51h12.5c2.8-7.6,5.2-14,7.2-19.3Z"/>
      <path d="M245.7,93.3c-4.5,0-7.9-1.2-10.2-3.6-2.3-2.4-2.7-6.1-1.1-11.1.2-.6.4-1.3.7-2h42.5c1.6-3.3,2.8-6.3,3.7-9,1.4-4.5,2.2-8.7,2.2-12.5,0-3.9-.9-7.3-2.8-10.4-1.9-3.1-4.8-5.2-8.5-6.5-3.8-1.2-8-1.9-12.6-1.9s-9,.7-13.7,2c-4.7,1.4-9.2,3.6-13.5,6.8-4.3,3.2-8.4,7.7-12.3,13.4-3.9,5.7-6.8,11.5-8.7,17.5-1.4,4.2-2.2,8.4-2.5,12.4-.3,4,.1,7.5,1.2,10.4,1,2.9,2.7,5.3,5,7.3,2.3,2,5.3,3.3,9.1,4.1,3.8.8,8.1,1.2,12.9,1.2s6.6-.2,9.9-.5c3.3-.3,7.5-1.1,12.5-2.1,5-10.7,8.2-17.5,9.6-20.3-5.6,1.7-10.2,3-13.8,3.7-3.6.7-6.8,1.1-9.5,1.1ZM241.3,61.6c.6-1.1,1.4-2.1,2.4-3.3,1-1.1,2-2.1,3.2-3,1.2-.9,2.4-1.5,3.7-2,1.3-.4,2.5-.7,3.7-.7,1.7,0,3.2.4,4.3,1.2,1.1.8,1.8,2.1,2,3.8.2,1.7-.1,3.8-.9,6.2-.2.6-.4,1.2-.7,2h-20c.9-1.9,1.6-3.3,2.3-4.4Z"/>
      <path d="M348.6,40.2l-27.3-29.1c-.3-.3-.8-.5-1.2-.5h-43.1c-.7,0-1.3.4-1.6,1-.3.6-.1,1.3.3,1.8l44.1,47.3-44.1,47.3c-.5.5-.6,1.2-.3,1.8.3.6.9,1,1.6,1h43.3c.5,0,.9-.2,1.2-.5l25.4-27.3c-.7,12-1.5,21.4-2.2,27.9h80.7l1.1-22.7c-13.3.8-26.6,1.2-39.9,1.2h-9.8l.8-18.2h41.4l1.2-22c-8.3.3-16.4.5-24.7.5h-16.9l.8-17.6h21.9c8.9,0,17.9.5,26.9.9l.8-22.4h-80.5c.1,10.5,0,20.5,0,29.7Z"/>
      <path d="M524.2,10.5c-17.1,25.4-36.5,49.7-53.1,74.6h-.3c1.7-25.7,0-41.5,1.6-74.6h-30.1c.8,33.4,2.1,66.7,1.9,100.4h33.4c25.1-33.9,51-67.1,77-100.4h-30.5Z"/>
      <path d="M575.4,10.5c-13.4,17.6-66.4,82.8-82.1,100.4h33.2l21.7-28.9h35.6c.3,9.6.7,19.1.1,28.9h32.1c-1.9-33.3-3.5-66.7-4.2-100.4h-36.4ZM563.3,60.9l22-28.7v28.7s-22,0-22,0Z"/>
      <path d="M687.6,31.9c7.4,0,14.7,1.8,21.8,3.5l-1-22.3c-8.3-1.5-16.7-2.6-25-2.6-31.5,0-58.1,17.8-58.1,53.4s30.8,48,52.8,48,17.5-.9,26-2.2l3.6-23.2c-8.1,2.2-16.4,4-24.9,4-16,0-28.1-9-28.1-26.9s9.2-31.7,32.9-31.7Z"/>
      <polygon points="711.5 102.1 714.1 102.1 714.1 109.6 715.2 109.6 715.2 102.1 717.8 102.1 717.8 101.1 711.5 101.1 711.5 102.1"/>
      <path d="M726.7,101.1h-1.4l-1.5,4.1c-.4,1.1-.7,2-.9,2.9h0c-.2-.9-.5-1.8-.9-2.9l-1.5-4.1h-1.4l-.6,8.5h1l.2-3.6c0-1.3.1-2.7.2-3.8h0c.2,1,.6,2.1,1,3.3l1.4,4.1h.8l1.5-4.1c.4-1.2.8-2.2,1.1-3.2h0c0,1.1,0,2.5.1,3.7l.2,3.7h1.1l-.5-8.5Z"/>
    </g>
    <g>
      <polygon class="st5" points="277 12.3 288.8 16.6 329.8 60.7 322.2 60.7 277 12.3"/>
      <polygon class="st1" points="320.4 109.2 316.7 104.8 357.9 60.7 365.5 60.7 320.4 109.2"/>
      <polygon class="st0" points="322.2 60.7 329.8 60.7 288.5 104.8 277 109.2 322.2 60.7"/>
      <polygon class="st2" points="316.8 16.6 320.1 12.3 277 12.3 288.8 16.6 316.8 16.6"/>
      <polygon class="st4" points="365.5 60.7 357.9 60.7 316.8 16.6 320.1 12.3 365.5 60.7"/>
      <polygon class="st3" points="277 109.2 288.5 104.8 316.7 104.8 320.4 109.2 277 109.2"/>
      <polygon class="st6" points="288.5 104.8 329.8 60.7 288.8 16.6 316.8 16.6 357.9 60.7 316.7 104.8 288.5 104.8"/>
    </g>
  </g>
</svg>
